<svg width="41" height="41" viewBox="0 0 41 41" fill="none" xmlns="http://www.w3.org/2000/svg">
<path fill-rule="evenodd" clip-rule="evenodd" d="M11.6993 21.0486L19.0906 23.8239C19.6662 24.04 20.3009 24.0388 20.8757 23.8205L28.0954 21.0781L28.0953 26.3516C28.0954 26.3566 28.0954 26.3615 28.0954 26.3665C28.0954 27.9912 24.425 29.3083 19.8973 29.3083C15.3696 29.3083 11.6993 27.9912 11.6993 26.3665C11.6993 26.3649 11.6992 26.3632 11.6992 26.3615C11.6992 26.3582 11.6992 26.3549 11.6993 26.3516V21.0486Z" fill="#FABD23"/>
<path d="M34.7553 25.0115C35.0019 24.5587 35.2808 23.9704 35.517 23.4475C35.7008 23.0403 36.224 22.9506 36.4489 23.3365C36.8433 24.0122 37.1032 24.8184 37.2324 25.3557C37.2734 25.5263 37.2374 25.7113 37.106 25.828C36.5499 26.3226 35.691 26.19 35.024 25.9371C34.6662 25.8015 34.5721 25.3475 34.7553 25.0115Z" fill="#464646"/>
<path fill-rule="evenodd" clip-rule="evenodd" d="M36.0155 23.408C35.9451 23.4176 35.8585 23.4697 35.8096 23.5779C35.5724 24.1033 35.2898 24.6999 35.0375 25.1631C34.9841 25.2611 34.9724 25.3759 34.9971 25.4696C35.0208 25.5592 35.0719 25.6162 35.1411 25.6424C35.4531 25.7608 35.796 25.8451 36.114 25.8476C36.4298 25.8501 36.6989 25.7726 36.9013 25.5925C36.924 25.5724 36.9515 25.5183 36.9303 25.4301C36.805 24.9099 36.5542 24.1358 36.1813 23.4961C36.1361 23.4186 36.0764 23.3996 36.0155 23.408ZM35.9293 22.7823C36.2321 22.7405 36.547 22.8695 36.7267 23.1779L36.4538 23.337M35.9293 22.7823C35.6359 22.8228 35.3691 23.0192 35.2339 23.3181L35.9293 22.7823ZM36.7267 23.1779C37.1419 23.8897 37.411 24.7281 37.5442 25.2823C37.6052 25.5354 37.5607 25.8514 37.321 26.0645C36.9673 26.3791 36.5283 26.4825 36.109 26.4792C35.6918 26.4759 35.2718 26.3675 34.9169 26.2329C34.3244 26.0082 34.2395 25.308 34.4827 24.861C34.7239 24.4185 34.999 23.8387 35.2339 23.3181" fill="#FABD23"/>
<path fill-rule="evenodd" clip-rule="evenodd" d="M35.4441 22.6129C35.5789 22.5025 35.7779 22.5224 35.8884 22.6573C35.9967 22.7897 36.0523 22.9842 36.0874 23.1461C36.1256 23.3246 36.1521 23.5334 36.1704 23.7433C36.207 24.164 36.2134 24.6194 36.208 24.9116C36.2048 25.086 36.0608 25.2248 35.8865 25.2217C35.7122 25.2185 35.5733 25.0746 35.5767 24.9002C35.5815 24.6234 35.5755 24.191 35.5414 23.798C35.524 23.601 35.5006 23.4214 35.47 23.2791C35.4545 23.2081 35.4387 23.1518 35.4233 23.1102C35.4087 23.0708 35.3989 23.0565 35.3989 23.0565L35.3996 23.0573C35.289 22.9223 35.3089 22.7234 35.4441 22.6129Z" fill="#FABD23"/>
<path fill-rule="evenodd" clip-rule="evenodd" d="M35.8331 16.5168C36.0945 16.5168 36.3067 16.7289 36.3067 16.9905V22.2362C36.3067 22.4978 36.0945 22.7099 35.8331 22.7099C35.5713 22.7099 35.3594 22.4978 35.3594 22.2362V16.9905C35.3594 16.7289 35.5713 16.5168 35.8331 16.5168Z" fill="#FABD23"/>
<path d="M37.1343 22.4228C37.1343 23.1428 36.5507 23.7264 35.8307 23.7264C35.1107 23.7264 34.5271 23.1428 34.5271 22.4228C34.5271 21.7028 35.1107 21.1191 35.8307 21.1191C36.5507 21.1191 37.1343 21.7028 37.1343 22.4228ZM18.9927 10.4521L3.68645 16.5511C3.40357 16.6638 3.40761 17.0656 3.69267 17.1727L19.0427 22.9363C19.6502 23.1644 20.32 23.1631 20.9266 22.9327L36.0919 17.1723C36.3754 17.0646 36.3792 16.665 36.0982 16.5516L20.9764 10.456C20.3403 10.1996 19.6298 10.1982 18.9927 10.4521Z" fill="#FABD23"/>
<path fill-rule="evenodd" clip-rule="evenodd" d="M31.5806 17.5346C31.6403 17.6984 31.556 17.8797 31.3922 17.9395L20.5904 21.8815C20.4265 21.9413 20.2453 21.857 20.1855 21.6931C20.1257 21.5293 20.21 21.348 20.3739 21.2882L31.1756 17.3462C31.3395 17.2864 31.5208 17.3708 31.5806 17.5346ZM6.17565 16.8036C6.23571 16.6398 6.41717 16.5558 6.5809 16.6158L10.1909 17.9401C10.3547 18.0002 10.4387 18.1816 10.3786 18.3453C10.3186 18.5091 10.1371 18.5931 9.9734 18.5331L6.36339 17.2088C6.19965 17.1487 6.11559 16.9673 6.17565 16.8036Z" fill="#464646"/>
</svg>
